<svg width="393" height="392" viewBox="0 0 393 392" fill="none" xmlns="http://www.w3.org/2000/svg">
<path d="M216.332 91.5473C227.838 84.844 231.79 68.2308 225.181 54.4076C218.553 40.6159 203.872 34.8593 192.359 41.55C180.871 48.2597 176.894 64.8665 183.509 78.6771C190.13 92.4688 204.825 98.2506 216.332 91.5473Z" fill="white"/>
<path d="M287.54 10.952C287.54 10.952 254.15 94.2513 211.954 119.316C127.986 73.6679 92.5631 0.114288 92.5631 0.114288C88.2331 48.4578 105.597 84.2278 131.432 106.32C131.432 106.32 250.255 208.22 244.373 253.717C272.234 214.324 255.4 157.321 255.4 157.321C245.338 122.194 262.955 107.513 270.012 92.5218C271.23 90.3063 295.001 56.4109 287.54 10.952Z" fill="white"/>
<path d="M311.794 324.517C308.941 325.439 301.979 324.928 282.778 335.576C263.577 346.218 241.535 357.788 216.71 360.811C191.885 363.841 176.673 348.023 176.673 348.023C165.407 332.559 194.385 343.643 210.91 347.221C237.319 353.363 248.977 338.871 248.977 338.871C264.322 323.324 252.064 322.018 242.343 325.433C232.629 328.835 221.059 326.543 200.968 319.726C180.877 312.91 166.663 310.221 166.663 310.221C154.405 309.116 143.106 311.975 133.127 316.741L133.121 316.735C133.121 316.735 85.5094 340.733 44.734 267.015L44.7277 267.034C33.0884 244.033 26.5113 218.059 26.5113 190.564C26.5113 136.963 51.4941 89.1054 90.3949 57.9431C85.1812 43.1794 82.2524 26.1118 83.1677 6.22275L83.1172 5.8945C83.1172 5.8945 79.8981 15.0406 77.7394 34.2984C30.5951 70.1884 0.0830078 126.876 0.0830078 190.564C0.0830078 229.181 11.2994 265.21 30.6267 295.602L30.6141 295.615C30.6141 295.615 69.8999 361.165 139.527 383.616C203.026 402.439 245.682 385.302 271.568 365.015C291.002 349.803 311.807 336.977 311.807 336.977C328.704 325.439 314.635 323.589 311.794 324.517Z" fill="white"/>
<path d="M392.765 190.566C392.765 119.386 354.685 56.929 297.821 22.5034C298.414 33.4043 297.461 43.535 295.618 52.7442C338.407 83.6287 366.337 133.885 366.337 190.566C366.337 237.351 347.325 279.793 316.624 310.551C324.729 311.491 331.085 316.181 333.199 323.049C334.051 325.794 334.159 328.363 333.761 330.737C370.15 295.08 392.765 245.411 392.765 190.566Z" fill="white"/>
<path d="M225.921 315.105C231.388 289.983 236.942 271.571 240.332 261.321C233.622 269.854 221.168 287.692 207.812 310.106C215.443 312.624 221.32 314.285 225.921 315.105Z" fill="white"/>
<path d="M195.182 216.122C195.182 216.122 170.294 277.431 161.388 298.74C163.477 298.74 165.573 298.803 167.687 298.993L168.76 299.144C169.347 299.251 182.962 301.864 202.403 308.315C216.845 287.669 229.974 271.958 237.731 262.358C240.06 259.454 240.477 256.494 240.856 254.083C240.887 233.114 199.973 181.817 188.87 174.223C198.843 181.154 201.185 203 195.182 216.122Z" fill="white"/>
</svg>
