<svg width="954" height="155" viewBox="0 0 954 155" fill="none" xmlns="http://www.w3.org/2000/svg">
<path d="M0.212 122V0.739993H55.596C69.1267 0.739993 79.5613 4.17999 86.9 11.06C94.2387 17.8253 97.908 27.2853 97.908 39.44C97.908 51.5947 94.2387 61.112 86.9 67.992C79.5613 74.872 69.1267 78.312 55.596 78.312H26.872V122H0.212ZM26.872 57.672H51.124C65.228 57.672 72.28 51.5947 72.28 39.44C72.28 27.5147 65.228 21.552 51.124 21.552H26.872V57.672ZM106.215 122V37.548H131.671V52.168C135.684 42.3067 144.284 36.86 157.471 35.828L165.039 35.312L166.587 57.156L151.967 58.704C139.124 59.9653 132.703 66.5013 132.703 78.312V122H106.215ZM211.878 123.892C202.819 123.892 194.907 122.115 188.142 118.56C181.491 114.891 176.331 109.788 172.662 103.252C168.993 96.6013 167.158 88.7467 167.158 79.688C167.158 70.744 168.993 63.004 172.662 56.468C176.331 49.8173 181.491 44.7147 188.142 41.16C194.907 37.6053 202.819 35.828 211.878 35.828C220.937 35.828 228.791 37.6053 235.442 41.16C242.207 44.7147 247.425 49.8173 251.094 56.468C254.878 63.004 256.77 70.744 256.77 79.688C256.77 88.7467 254.878 96.6013 251.094 103.252C247.425 109.788 242.207 114.891 235.442 118.56C228.791 122.115 220.937 123.892 211.878 123.892ZM211.878 104.456C217.382 104.456 221.854 102.449 225.294 98.436C228.849 94.4227 230.626 88.1733 230.626 79.688C230.626 71.3173 228.849 65.1827 225.294 61.284C221.854 57.2707 217.382 55.264 211.878 55.264C206.374 55.264 201.902 57.2707 198.462 61.284C195.022 65.1827 193.302 71.3173 193.302 79.688C193.302 88.1733 195.022 94.4227 198.462 98.436C201.902 102.449 206.374 104.456 211.878 104.456ZM308.863 154.852C300.722 154.852 293.097 153.992 285.987 152.272C278.993 150.552 272.858 147.857 267.583 144.188L274.635 126.472C279.222 129.339 284.382 131.517 290.115 133.008C295.963 134.613 301.467 135.416 306.627 135.416C321.305 135.416 328.643 128.651 328.643 115.12V105.488C326.35 109.845 322.738 113.343 317.807 115.98C312.877 118.617 307.487 119.936 301.639 119.936C294.071 119.936 287.478 118.216 281.859 114.776C276.241 111.221 271.883 106.291 268.787 99.984C265.691 93.6773 264.143 86.2813 264.143 77.796C264.143 69.4253 265.691 62.0867 268.787 55.78C271.883 49.4733 276.241 44.6 281.859 41.16C287.478 37.6053 294.071 35.828 301.639 35.828C307.717 35.828 313.163 37.1467 317.979 39.784C322.795 42.4213 326.35 45.9187 328.643 50.276V37.548H353.927V112.196C353.927 126.415 350.086 137.079 342.403 144.188C334.721 151.297 323.541 154.852 308.863 154.852ZM309.379 100.5C315.113 100.5 319.699 98.4933 323.139 94.48C326.694 90.4667 328.471 84.9053 328.471 77.796C328.471 70.6867 326.694 65.1827 323.139 61.284C319.699 57.2707 315.113 55.264 309.379 55.264C303.531 55.264 298.887 57.2707 295.447 61.284C292.007 65.1827 290.287 70.6867 290.287 77.796C290.287 84.9053 292.007 90.4667 295.447 94.48C298.887 98.4933 303.531 100.5 309.379 100.5ZM369.792 122V37.548H395.248V52.168C399.261 42.3067 407.861 36.86 421.048 35.828L428.616 35.312L430.164 57.156L415.544 58.704C402.701 59.9653 396.28 66.5013 396.28 78.312V122H369.792ZM478.723 123.892C468.747 123.892 460.147 122.115 452.923 118.56C445.813 114.891 440.309 109.788 436.411 103.252C432.627 96.6013 430.735 88.804 430.735 79.86C430.735 71.1453 432.569 63.52 436.239 56.984C440.023 50.3333 445.125 45.1733 451.547 41.504C458.083 37.72 465.593 35.828 474.079 35.828C486.348 35.828 496.095 39.7267 503.319 47.524C510.543 55.2067 514.155 65.6413 514.155 78.828V85.364H455.503C456.42 92.0147 458.828 96.888 462.727 99.984C466.74 102.965 472.244 104.456 479.239 104.456C483.825 104.456 488.469 103.768 493.171 102.392C497.872 101.016 502.115 98.8947 505.899 96.028L512.779 113.4C508.536 116.611 503.319 119.191 497.127 121.14C491.049 122.975 484.915 123.892 478.723 123.892ZM475.111 53.028C469.607 53.028 465.135 54.6907 461.695 58.016C458.369 61.3413 456.305 65.9853 455.503 71.948H492.655C491.967 59.3347 486.119 53.028 475.111 53.028ZM557.297 123.892C549.844 123.892 542.907 123.032 536.485 121.312C530.064 119.592 524.732 117.241 520.489 114.26L526.681 97.404C530.924 100.041 535.74 102.163 541.129 103.768C546.633 105.259 552.08 106.004 557.469 106.004C562.285 106.004 565.84 105.259 568.133 103.768C570.427 102.163 571.573 100.099 571.573 97.576C571.573 93.5627 568.649 91.04 562.801 90.008L544.741 86.74C537.517 85.4787 532.013 82.8987 528.229 79C524.445 75.1013 522.553 69.9987 522.553 63.692C522.553 57.9587 524.159 53.028 527.369 48.9C530.58 44.772 534.995 41.5613 540.613 39.268C546.232 36.9747 552.711 35.828 560.049 35.828C566.127 35.828 572.032 36.6307 577.765 38.236C583.499 39.7267 588.429 42.1347 592.557 45.46L586.021 62.144C582.581 59.6213 578.453 57.5573 573.637 55.952C568.936 54.3467 564.521 53.544 560.393 53.544C555.233 53.544 551.507 54.404 549.213 56.124C546.92 57.7293 545.773 59.7933 545.773 62.316C545.773 66.3293 548.468 68.852 553.857 69.884L571.917 73.152C579.371 74.4133 585.047 76.936 588.945 80.72C592.844 84.3893 594.793 89.4347 594.793 95.856C594.793 104.685 591.353 111.565 584.473 116.496C577.593 121.427 568.535 123.892 557.297 123.892ZM637.653 123.892C630.2 123.892 623.263 123.032 616.841 121.312C610.42 119.592 605.088 117.241 600.845 114.26L607.037 97.404C611.28 100.041 616.096 102.163 621.485 103.768C626.989 105.259 632.436 106.004 637.825 106.004C642.641 106.004 646.196 105.259 648.489 103.768C650.783 102.163 651.929 100.099 651.929 97.576C651.929 93.5627 649.005 91.04 643.157 90.008L625.097 86.74C617.873 85.4787 612.369 82.8987 608.585 79C604.801 75.1013 602.909 69.9987 602.909 63.692C602.909 57.9587 604.515 53.028 607.725 48.9C610.936 44.772 615.351 41.5613 620.969 39.268C626.588 36.9747 633.067 35.828 640.405 35.828C646.483 35.828 652.388 36.6307 658.121 38.236C663.855 39.7267 668.785 42.1347 672.913 45.46L666.377 62.144C662.937 59.6213 658.809 57.5573 653.993 55.952C649.292 54.3467 644.877 53.544 640.749 53.544C635.589 53.544 631.863 54.404 629.569 56.124C627.276 57.7293 626.129 59.7933 626.129 62.316C626.129 66.3293 628.824 68.852 634.213 69.884L652.273 73.152C659.727 74.4133 665.403 76.936 669.301 80.72C673.2 84.3893 675.149 89.4347 675.149 95.856C675.149 104.685 671.709 111.565 664.829 116.496C657.949 121.427 648.891 123.892 637.653 123.892ZM686.706 122V0.739993H745.014C758.774 0.739993 769.38 4.29466 776.834 11.404C784.402 18.3987 788.186 28.088 788.186 40.472C788.186 52.856 784.402 62.6027 776.834 69.712C769.38 76.7067 758.774 80.204 745.014 80.204H718.354V122H686.706ZM718.354 55.952H739.51C751.894 55.952 758.086 50.792 758.086 40.472C758.086 30.152 751.894 24.992 739.51 24.992H718.354V55.952ZM794.896 122V37.376H824.652V51.652C828.551 41.9053 836.979 36.5733 849.936 35.656L858.364 34.968L860.084 60.768L843.4 62.316C837.323 62.8893 832.908 64.6093 830.156 67.476C827.404 70.228 826.028 74.356 826.028 79.86V122H794.896ZM906.491 123.892C897.088 123.892 888.889 122.115 881.895 118.56C874.9 115.005 869.453 109.903 865.555 103.252C861.656 96.6013 859.707 88.7467 859.707 79.688C859.707 70.5147 861.656 62.66 865.555 56.124C869.453 49.4733 874.9 44.3707 881.895 40.816C888.889 37.2613 897.088 35.484 906.491 35.484C915.893 35.484 924.092 37.2613 931.087 40.816C938.081 44.3707 943.471 49.4733 947.255 56.124C951.153 62.66 953.103 70.5147 953.103 79.688C953.103 88.7467 951.153 96.6013 947.255 103.252C943.471 109.903 938.081 115.005 931.087 118.56C924.092 122.115 915.893 123.892 906.491 123.892ZM906.491 101.36C911.077 101.36 914.861 99.64 917.843 96.2C920.824 92.76 922.315 87.256 922.315 79.688C922.315 72.0053 920.824 66.5013 917.843 63.176C914.861 59.736 911.077 58.016 906.491 58.016C901.789 58.016 897.948 59.736 894.967 63.176C891.985 66.5013 890.495 72.0053 890.495 79.688C890.495 87.256 891.985 92.76 894.967 96.2C897.948 99.64 901.789 101.36 906.491 101.36Z" fill="white"/>
</svg>
