<svg width="273" height="281" viewBox="0 0 273 281" fill="none" xmlns="http://www.w3.org/2000/svg">
<rect x="0.565918" width="272.434" height="280.218" rx="34" fill="url(#paint0_linear_521_20)"/>
<path d="M170.925 113.075C176.199 113.075 180.475 108.799 180.475 103.525C180.475 98.2508 176.199 93.9751 170.925 93.9751C165.651 93.9751 161.375 98.2508 161.375 103.525C161.375 108.799 165.651 113.075 170.925 113.075ZM129.928 75.6944C133.51 72.1124 138.368 70.1001 143.433 70.1001H185.949C196.498 70.1001 205.049 78.6515 205.049 89.2001V130.974C205.049 136.073 203.011 140.96 199.387 144.548L143.826 199.553C136.356 206.949 124.315 206.918 116.882 199.485L75.0154 157.618C67.5564 150.16 67.5564 138.066 75.0154 130.607L129.928 75.6944ZM143.433 79.6501C140.901 79.6501 138.471 80.6563 136.681 82.4472L81.7682 137.36C78.0387 141.089 78.0387 147.136 81.7682 150.865L123.635 192.733C127.352 196.449 133.372 196.464 137.107 192.766L192.668 137.761C194.48 135.967 195.499 133.524 195.499 130.974V89.2001C195.499 83.9258 191.224 79.6501 185.949 79.6501H143.433ZM70.6222 163.691C68.0904 170.481 69.554 178.423 75.0132 183.882L103.442 212.311C118.307 227.177 142.39 227.237 157.33 212.447L199.385 170.812C203.008 167.225 205.047 162.337 205.047 157.238V151.774L157.33 199.076C156.868 199.532 156.398 199.974 155.921 200.402L150.61 205.659C139.405 216.753 121.344 216.707 110.195 205.558L105.435 200.798C104.754 200.206 104.089 199.588 103.442 198.94L75.0132 170.512C73.0133 168.512 71.5497 166.179 70.6222 163.691Z" fill="white"/>
<defs>
<linearGradient id="paint0_linear_521_20" x1="136.783" y1="0" x2="136.783" y2="280.218" gradientUnits="userSpaceOnUse">
<stop stop-color="#20D156"/>
<stop offset="1" stop-color="#68D593"/>
</linearGradient>
</defs>
</svg>
